<svg width="14" height="14" viewBox="0 0 14 14" fill="none" xmlns="http://www.w3.org/2000/svg">
<mask id="mask0" mask-type="alpha" maskUnits="userSpaceOnUse" x="2" y="0" width="12" height="13">
<path d="M2.45386 1.68308C3.52909 0.801189 4.89403 0.35051 6.28323 0.418674C7.67244 0.486834 8.98664 1.06897 9.97029 2.05188C10.3867 2.46796 10.717 2.96195 10.9424 3.50565C11.1677 4.04934 11.2837 4.63209 11.2837 5.22061C11.2837 5.80914 11.1677 6.39189 10.9424 6.93558C10.717 7.47927 10.3867 7.97328 9.97029 8.38936C9.50183 8.85779 8.91256 9.18721 8.26803 9.34098C7.62348 9.49478 6.94888 9.46689 6.31924 9.26042C6.25014 9.24052 6.18338 9.21594 6.11779 9.19016C5.74555 9.04063 5.41768 8.79851 5.16526 8.4868C4.91288 8.17509 4.74433 7.80414 4.67556 7.40905C4.60682 7.01399 4.64014 6.60789 4.77243 6.22933C4.90469 5.85074 5.13152 5.5122 5.43138 5.24578C4.9219 5.68586 4.54674 6.26053 4.3489 6.90387C4.15106 7.54722 4.13853 8.23328 4.31276 8.88343C4.6205 10.0315 5.3719 11.0104 6.40172 11.6048C7.4315 12.1991 8.65533 12.3603 9.80396 12.0528C11.18 11.6844 12.364 10.8062 13.1155 9.59668C13.867 8.38711 14.1295 6.9369 13.8497 5.54083C13.5975 4.35475 13.0411 3.2546 12.2352 2.34826C11.4293 1.44193 10.4016 0.760537 9.25273 0.370932C8.10394 -0.0186741 6.87355 -0.103115 5.68222 0.125892C4.49093 0.354901 3.37965 0.889489 2.45737 1.67722" fill="#C4C4C4"/>
</mask>
<g mask="url(#mask0)">
<path d="M14.0744 -2.13867L0.295166 0.247736L2.80166 14.707L16.5809 12.3206L14.0744 -2.13867Z" fill="url(#paint0_linear)"/>
</g>
<mask id="mask1" mask-type="alpha" maskUnits="userSpaceOnUse" x="0" y="0" width="14" height="15">
<path d="M2.45394 1.68366C1.56089 2.44601 0.874091 3.42069 0.456792 4.51799C0.0394917 5.61525 -0.0948937 6.79982 0.06601 7.96262C0.226914 9.12543 0.677936 10.2291 1.37754 11.1719C2.07714 12.1148 3.00284 12.8666 4.06939 13.358C5.13594 13.8495 6.30904 14.0648 7.48069 13.9841C8.65234 13.9035 9.78487 13.5295 10.774 12.8966C11.763 12.2637 12.5769 11.3922 13.1407 10.3624C13.7044 9.33263 13.9998 8.1776 13.9998 7.00372C14.0008 6.51241 13.9505 6.02232 13.8498 5.5414C14.1291 6.93683 13.8666 8.38618 13.1156 9.59517C12.3646 10.8042 11.1815 11.6822 9.80638 12.051C9.23747 12.2038 8.64401 12.2431 8.05992 12.1665C7.47583 12.09 6.91254 11.8992 6.40227 11.605C5.89197 11.3107 5.44469 10.9189 5.086 10.4518C4.72727 9.98474 4.46416 9.45161 4.31167 8.88285C4.13744 8.2327 4.14997 7.54664 4.34781 6.90329C4.54566 6.25992 4.92082 5.68529 5.4303 5.2452C5.46427 5.21477 5.49707 5.1855 5.53337 5.15739C5.84573 4.90916 6.21603 4.74429 6.60956 4.67821C7.00311 4.61212 7.407 4.64698 7.78334 4.77956C8.15971 4.91215 8.49624 5.13807 8.76138 5.43616C9.02651 5.73426 9.21157 6.09475 9.29919 6.48391C9.30975 6.53073 9.31795 6.57756 9.32497 6.62558C9.38269 6.96299 9.3657 7.30901 9.27515 7.63917C9.18461 7.96933 9.02274 8.27561 8.80096 8.53648C8.57918 8.79735 8.30286 9.00645 7.99145 9.14902C7.68007 9.29158 7.34122 9.36418 6.99872 9.36168C6.76851 9.36194 6.53958 9.32801 6.31933 9.261C6.94897 9.46746 7.62357 9.49536 8.2681 9.34159C8.91265 9.18779 9.50192 8.8584 9.97038 8.38994C10.3868 7.97386 10.7171 7.47985 10.9424 6.93616C11.1678 6.39247 11.2838 5.80972 11.2838 5.22119C11.2838 4.6327 11.1678 4.04995 10.9424 3.50622C10.7171 2.96254 10.3868 2.46854 9.97038 2.05246C8.98687 1.06931 7.67263 0.487013 6.28333 0.418849C4.89406 0.350683 3.52905 0.801522 2.45394 1.68366Z" fill="#C4C4C4"/>
</mask>
<g mask="url(#mask1)">
<path d="M13.7931 -2.53711L-2.78369 1.00592L0.62725 16.9499L17.204 13.4069L13.7931 -2.53711Z" fill="url(#paint1_radial)"/>
</g>
<defs>
<linearGradient id="paint0_linear" x1="13.6852" y1="5.42131" x2="6.9129" y2="6.59527" gradientUnits="userSpaceOnUse">
<stop stop-color="#D2232A"/>
<stop offset="0.35" stop-color="#D2232A"/>
<stop offset="1" stop-color="#F15A29"/>
</linearGradient>
<radialGradient id="paint1_radial" cx="0" cy="0" r="1" gradientUnits="userSpaceOnUse" gradientTransform="translate(10.7456 6.46329) rotate(167.936) scale(8.21908 8.21559)">
<stop stop-color="#530304"/>
<stop offset="1" stop-color="#D2232A"/>
</radialGradient>
</defs>
</svg>
